<svg xmlns="http://www.w3.org/2000/svg" xmlns:xlink="http://www.w3.org/1999/xlink" width="300" zoomAndPan="magnify" viewBox="0 0 224.87999 225" height="300" preserveAspectRatio="xMidYMid meet" version="1.2"><defs><clipPath id="f2bf0195f1"><path d="M 0 0.0585938 L 224.761719 0.0585938 L 224.761719 224.9375 L 0 224.9375 Z M 0 0.0585938 "/></clipPath><clipPath id="4082b21feb"><path d="M 25.328125 101.222656 L 51 101.222656 L 51 123.710938 L 25.328125 123.710938 Z M 25.328125 101.222656 "/></clipPath><clipPath id="877badd1c1"><path d="M 187 104 L 199.238281 104 L 199.238281 123 L 187 123 Z M 187 104 "/></clipPath></defs><g id="d593265bd3"><g clip-rule="nonzero" clip-path="url(#f2bf0195f1)"><path style=" stroke:none;fill-rule:nonzero;fill:#ffffff;fill-opacity:1;" d="M 0 0.0585938 L 224.878906 0.0585938 L 224.878906 224.941406 L 0 224.941406 Z M 0 0.0585938 "/><path style=" stroke:none;fill-rule:nonzero;fill:#ffffff;fill-opacity:1;" d="M 0 0.0585938 L 224.878906 0.0585938 L 224.878906 224.941406 L 0 224.941406 Z M 0 0.0585938 "/></g><g clip-rule="nonzero" clip-path="url(#4082b21feb)"><path style=" stroke:none;fill-rule:nonzero;fill:#000000;fill-opacity:1;" d="M 36.898438 101.667969 C 36.261719 101.722656 35.15625 101.902344 35.070312 101.964844 C 35.019531 102.003906 34.863281 103.058594 34.417969 106.507812 C 34.09375 108.984375 33.808594 111.109375 33.78125 111.234375 C 33.671875 111.683594 33.339844 112.300781 33.011719 112.65625 C 32.789062 112.890625 31.664062 113.785156 29.128906 115.726562 C 27.15625 117.238281 25.53125 118.484375 25.503906 118.507812 C 25.410156 118.59375 25.996094 120.070312 26.464844 120.925781 C 26.945312 121.789062 27.46875 122.535156 28.234375 123.4375 L 28.371094 123.597656 L 32.628906 121.824219 C 35.15625 120.769531 37.007812 120.023438 37.191406 119.980469 C 37.613281 119.894531 38.257812 119.894531 38.664062 119.992188 C 38.863281 120.039062 40.769531 120.804688 43.226562 121.828125 L 47.453125 123.59375 L 47.707031 123.316406 C 48.738281 122.191406 49.71875 120.5 50.25 118.9375 L 50.378906 118.550781 L 50.15625 118.375 C 50.035156 118.28125 48.375 117.003906 46.464844 115.542969 C 43.730469 113.445312 42.949219 112.816406 42.753906 112.582031 C 42.453125 112.226562 42.164062 111.636719 42.066406 111.214844 C 42.023438 111.046875 41.730469 108.902344 41.414062 106.445312 C 40.867188 102.207031 40.832031 101.980469 40.738281 101.949219 C 40.554688 101.878906 39.480469 101.714844 38.871094 101.667969 C 38.191406 101.613281 37.585938 101.613281 36.898438 101.671875 Z M 38.242188 109.480469 L 38.257812 113.402344 L 38.390625 113.769531 C 38.460938 113.96875 38.589844 114.25 38.675781 114.382812 C 39.03125 114.941406 39.160156 115.035156 42.277344 116.828125 C 43.886719 117.761719 45.375 118.625 45.585938 118.75 L 45.96875 118.976562 L 45.632812 119.539062 L 45.4375 119.429688 C 40.429688 116.523438 39.050781 115.738281 38.773438 115.640625 C 38.3125 115.476562 37.558594 115.472656 37.101562 115.625 C 36.914062 115.691406 35.480469 116.488281 33.539062 117.613281 C 31.75 118.648438 30.261719 119.5 30.238281 119.503906 C 30.195312 119.515625 29.855469 118.980469 29.886719 118.953125 C 29.898438 118.949219 31.375 118.097656 33.167969 117.0625 C 36.273438 115.273438 36.445312 115.167969 36.785156 114.835938 C 37.171875 114.449219 37.425781 114 37.523438 113.527344 C 37.554688 113.359375 37.578125 112.035156 37.578125 109.425781 L 37.578125 105.566406 L 38.230469 105.566406 Z M 38.242188 109.480469 "/></g><path style=" stroke:none;fill-rule:nonzero;fill:#000000;fill-opacity:1;" d="M 61.410156 112.601562 L 61.410156 122.738281 L 70.15625 122.738281 L 72.800781 120.960938 L 75.4375 119.1875 L 75.421875 117.351562 C 75.40625 115.546875 75.402344 115.507812 75.285156 115.0625 C 75.140625 114.535156 74.871094 113.9375 74.59375 113.523438 C 74.164062 112.890625 73.414062 112.222656 72.773438 111.90625 C 72.609375 111.824219 72.476562 111.746094 72.476562 111.734375 C 72.476562 111.71875 72.890625 111.429688 73.394531 111.097656 L 74.3125 110.488281 L 74.289062 108.769531 C 74.261719 106.644531 74.199219 106.289062 73.707031 105.3125 C 73.027344 103.988281 71.835938 103.023438 70.375 102.621094 L 69.921875 102.492188 L 65.667969 102.480469 L 61.40625 102.464844 L 61.40625 112.601562 Z M 69.828125 105.515625 C 70.433594 105.757812 70.863281 106.148438 71.113281 106.675781 C 71.3125 107.085938 71.351562 107.359375 71.351562 108.195312 L 71.351562 108.9375 L 69.734375 110.027344 L 68.117188 111.121094 L 64.316406 111.121094 L 64.316406 105.375 L 66.929688 105.390625 L 69.546875 105.40625 L 69.828125 105.519531 Z M 70.816406 114.148438 C 71.566406 114.347656 72.160156 114.914062 72.394531 115.648438 C 72.46875 115.878906 72.5 116.105469 72.519531 116.765625 L 72.535156 117.589844 L 70.890625 118.703125 L 69.238281 119.816406 L 64.316406 119.816406 L 64.316406 114.078125 L 67.449219 114.078125 C 69.914062 114.078125 70.632812 114.09375 70.816406 114.144531 Z M 70.816406 114.148438 "/><path style=" stroke:none;fill-rule:nonzero;fill:#000000;fill-opacity:1;" d="M 108.695312 103.945312 L 108.695312 105.425781 L 112.027344 105.425781 L 112.027344 102.464844 L 108.695312 102.464844 Z M 108.695312 103.945312 "/><path style=" stroke:none;fill-rule:nonzero;fill:#000000;fill-opacity:1;" d="M 148.898438 105.96875 L 148.898438 107.777344 L 145.425781 107.777344 L 145.425781 110.601562 L 148.890625 110.601562 L 148.910156 114.515625 C 148.925781 118.339844 148.925781 118.441406 149.023438 118.808594 C 149.515625 120.652344 150.945312 122.074219 152.816406 122.582031 C 153.277344 122.707031 153.304688 122.707031 155.078125 122.726562 L 156.871094 122.742188 L 156.871094 119.914062 L 155.40625 119.914062 C 154.328125 119.914062 153.855469 119.898438 153.628906 119.851562 C 152.808594 119.675781 152.128906 119.074219 151.898438 118.324219 C 151.808594 118.035156 151.804688 117.875 151.804688 114.3125 L 151.804688 110.605469 L 156.871094 110.605469 L 156.871094 107.78125 L 151.804688 107.78125 L 151.804688 104.160156 L 148.898438 104.160156 Z M 148.898438 105.96875 "/><g clip-rule="nonzero" clip-path="url(#877badd1c1)"><path style=" stroke:none;fill-rule:nonzero;fill:#000000;fill-opacity:1;" d="M 187.644531 113.449219 L 187.644531 122.738281 L 190.554688 122.738281 L 190.554688 116.339844 L 191.683594 116.351562 L 192.816406 116.367188 L 194.613281 119.511719 C 195.605469 121.242188 196.433594 122.675781 196.457031 122.703125 C 196.476562 122.71875 197.25 122.734375 198.171875 122.730469 L 199.847656 122.714844 L 197.578125 118.820312 L 195.308594 114.921875 L 197.578125 111.367188 L 199.847656 107.804688 L 198.171875 107.789062 C 196.867188 107.777344 196.480469 107.792969 196.4375 107.835938 C 196.410156 107.871094 195.574219 109.164062 194.589844 110.707031 L 192.792969 113.519531 L 190.554688 113.519531 L 190.554688 104.160156 L 187.644531 104.160156 Z M 187.644531 113.449219 "/></g><path style=" stroke:none;fill-rule:nonzero;fill:#000000;fill-opacity:1;" d="M 78.296875 115.257812 L 78.296875 122.734375 L 81.160156 122.734375 L 81.171875 117.90625 L 81.1875 113.078125 L 84.9375 110.601562 L 88.621094 110.601562 L 88.621094 107.777344 L 84.351562 107.777344 L 82.960938 108.804688 C 81.464844 109.90625 81.40625 109.945312 81.261719 109.945312 C 81.164062 109.945312 81.164062 109.925781 81.164062 108.863281 L 81.164062 107.78125 L 78.300781 107.78125 L 78.300781 115.257812 Z M 78.296875 115.257812 "/><path style=" stroke:none;fill-rule:nonzero;fill:#000000;fill-opacity:1;" d="M 94.199219 107.847656 C 92.738281 108.097656 91.40625 108.972656 90.605469 110.207031 C 90.320312 110.644531 90.121094 111.078125 89.96875 111.617188 C 89.898438 111.867188 89.859375 113.085938 89.859375 115.28125 L 89.859375 118.574219 L 89.992188 118.992188 C 90.574219 120.859375 92.117188 122.246094 94.046875 122.636719 C 94.460938 122.722656 94.691406 122.734375 95.84375 122.734375 L 97.160156 122.734375 L 98.183594 121.957031 C 98.914062 121.402344 99.238281 121.179688 99.328125 121.179688 L 99.453125 121.179688 L 99.453125 122.734375 L 102.359375 122.734375 L 102.359375 107.777344 L 99.453125 107.777344 L 99.453125 109.328125 L 99.328125 109.328125 C 99.234375 109.328125 98.910156 109.105469 98.167969 108.550781 L 97.140625 107.773438 L 95.84375 107.777344 C 95.035156 107.785156 94.417969 107.804688 94.199219 107.84375 Z M 97.84375 111.664062 L 99.453125 112.730469 L 99.453125 117.78125 L 96.25 119.914062 L 95.542969 119.914062 C 94.714844 119.914062 94.378906 119.847656 93.910156 119.605469 C 93.5625 119.421875 93.164062 119.035156 92.960938 118.691406 C 92.699219 118.238281 92.695312 118.15625 92.695312 115.257812 C 92.695312 113.640625 92.710938 112.519531 92.746094 112.390625 C 92.933594 111.574219 93.683594 110.867188 94.570312 110.675781 C 94.746094 110.636719 95.160156 110.605469 95.550781 110.605469 L 96.226562 110.597656 L 97.839844 111.664062 Z M 97.84375 111.664062 "/><path style=" stroke:none;fill-rule:nonzero;fill:#000000;fill-opacity:1;" d="M 104.988281 109.191406 L 104.988281 110.601562 L 108.976562 110.601562 L 108.976562 119.914062 L 104.988281 119.914062 L 104.988281 122.734375 L 115.589844 122.734375 L 115.589844 119.914062 L 111.886719 119.914062 L 111.886719 107.777344 L 104.988281 107.777344 Z M 104.988281 109.191406 "/><path style=" stroke:none;fill-rule:nonzero;fill:#000000;fill-opacity:1;" d="M 117.886719 115.257812 L 117.886719 122.734375 L 120.75 122.734375 L 120.761719 117.691406 L 120.777344 112.648438 L 122.394531 111.617188 L 124.007812 110.585938 L 124.808594 110.605469 C 125.519531 110.621094 125.644531 110.636719 125.945312 110.746094 C 126.816406 111.054688 127.402344 111.746094 127.507812 112.59375 C 127.53125 112.773438 127.558594 115.128906 127.558594 117.824219 L 127.558594 122.726562 L 130.425781 122.726562 L 130.410156 117.398438 L 130.394531 112.074219 L 130.269531 111.625 C 130.027344 110.738281 129.589844 109.992188 128.941406 109.34375 C 128.355469 108.75 127.648438 108.3125 126.863281 108.050781 C 126.152344 107.8125 125.757812 107.769531 124.351562 107.769531 L 123.078125 107.773438 L 121.929688 108.589844 L 120.78125 109.410156 L 120.765625 108.585938 L 120.757812 107.769531 L 117.894531 107.769531 L 117.894531 115.246094 Z M 117.886719 115.257812 "/><path style=" stroke:none;fill-rule:nonzero;fill:#000000;fill-opacity:1;" d="M 136.347656 107.832031 C 134.335938 108.136719 132.957031 109.269531 132.636719 110.886719 C 132.542969 111.355469 132.570312 112.144531 132.691406 112.601562 C 132.878906 113.289062 133.359375 114.023438 133.9375 114.488281 C 134.800781 115.1875 135.722656 115.605469 137.875 116.269531 C 139.960938 116.90625 140.601562 117.171875 141.132812 117.605469 C 141.863281 118.191406 141.945312 119.179688 141.308594 119.667969 C 141.074219 119.847656 140.699219 119.992188 140.304688 120.058594 C 140.140625 120.082031 139.316406 120.105469 138.480469 120.105469 C 137.101562 120.105469 136.917969 120.097656 136.582031 120.015625 C 135.675781 119.78125 135.25 119.257812 135.25 118.382812 L 135.25 118.035156 L 132.375 118.035156 L 132.402344 118.679688 C 132.417969 119.171875 132.449219 119.410156 132.527344 119.660156 C 132.992188 121.113281 134.132812 122.105469 135.898438 122.589844 L 136.351562 122.710938 L 138.484375 122.71875 C 140.394531 122.71875 140.664062 122.707031 141.019531 122.628906 C 142.15625 122.378906 142.984375 121.945312 143.628906 121.269531 C 144.304688 120.566406 144.632812 119.746094 144.632812 118.773438 C 144.632812 116.773438 143.449219 115.292969 141.046875 114.269531 C 140.484375 114.035156 139.542969 113.707031 137.804688 113.148438 C 136.476562 112.722656 135.734375 112.332031 135.558594 111.949219 C 135.460938 111.742188 135.460938 111.347656 135.558594 111.140625 C 135.675781 110.894531 135.980469 110.660156 136.328125 110.546875 C 136.609375 110.453125 136.75 110.441406 138.117188 110.421875 C 139.09375 110.414062 139.691406 110.421875 139.855469 110.457031 C 140.414062 110.574219 140.917969 110.925781 141.121094 111.34375 C 141.183594 111.472656 141.234375 111.691406 141.253906 111.894531 L 141.273438 112.222656 L 144.136719 112.222656 L 144.152344 112.039062 C 144.199219 111.5 143.960938 110.601562 143.617188 110.023438 C 143.371094 109.59375 142.808594 108.988281 142.398438 108.691406 C 141.996094 108.398438 141.292969 108.082031 140.753906 107.933594 C 140.300781 107.808594 140.277344 107.808594 138.460938 107.800781 C 137.460938 107.792969 136.507812 107.808594 136.351562 107.832031 Z M 136.347656 107.832031 "/><path style=" stroke:none;fill-rule:nonzero;fill:#000000;fill-opacity:1;" d="M 163.132812 107.855469 C 160.933594 108.246094 159.175781 109.984375 158.839844 112.105469 C 158.804688 112.355469 158.792969 113.324219 158.804688 115.46875 C 158.820312 118.382812 158.820312 118.488281 158.921875 118.839844 C 159.4375 120.675781 160.867188 122.082031 162.722656 122.582031 C 163.164062 122.699219 163.242188 122.707031 164.652344 122.726562 L 166.121094 122.746094 L 167.289062 121.964844 L 168.460938 121.1875 L 168.460938 122.738281 L 171.320312 122.738281 L 171.320312 107.78125 L 168.460938 107.78125 L 168.460938 109.328125 L 167.289062 108.554688 L 166.113281 107.777344 L 164.8125 107.785156 C 163.921875 107.789062 163.394531 107.804688 163.136719 107.855469 Z M 166.839844 111.683594 L 168.460938 112.765625 L 168.460938 117.773438 L 166.835938 118.839844 L 165.21875 119.910156 L 164.546875 119.910156 C 163.734375 119.910156 163.425781 119.859375 162.972656 119.640625 C 162.324219 119.332031 161.835938 118.707031 161.707031 118.03125 C 161.644531 117.703125 161.644531 112.878906 161.707031 112.5 C 161.847656 111.636719 162.613281 110.867188 163.535156 110.671875 C 163.714844 110.628906 164.128906 110.601562 164.527344 110.601562 L 165.21875 110.597656 L 166.839844 111.675781 Z M 166.839844 111.683594 "/><path style=" stroke:none;fill-rule:nonzero;fill:#000000;fill-opacity:1;" d="M 177.957031 107.808594 C 175.867188 108.101562 174.0625 109.621094 173.53125 111.542969 C 173.351562 112.203125 173.328125 112.652344 173.347656 115.566406 L 173.363281 118.339844 L 173.488281 118.8125 C 173.980469 120.636719 175.4375 122.078125 177.304688 122.585938 C 177.757812 122.707031 177.804688 122.710938 179.410156 122.730469 C 181.257812 122.746094 181.550781 122.726562 182.296875 122.476562 C 183.171875 122.183594 183.828125 121.765625 184.480469 121.085938 C 185.257812 120.269531 185.761719 119.242188 185.851562 118.257812 L 185.871094 117.988281 L 184.425781 118 L 182.988281 118.015625 L 182.902344 118.28125 C 182.683594 118.992188 182.070312 119.558594 181.265625 119.796875 C 180.898438 119.90625 178.410156 119.90625 178 119.800781 C 177.175781 119.585938 176.46875 118.894531 176.292969 118.128906 C 176.257812 118 176.238281 116.871094 176.238281 115.234375 C 176.238281 112.671875 176.246094 112.53125 176.332031 112.238281 C 176.582031 111.429688 177.335938 110.792969 178.207031 110.660156 C 178.6875 110.578125 180.746094 110.59375 181.140625 110.675781 C 182.015625 110.859375 182.722656 111.488281 182.914062 112.25 L 182.980469 112.511719 L 184.421875 112.523438 L 185.855469 112.535156 L 185.855469 112.328125 C 185.855469 111.960938 185.632812 111.226562 185.367188 110.679688 C 184.695312 109.316406 183.496094 108.363281 181.921875 107.9375 C 181.480469 107.820312 181.4375 107.8125 179.78125 107.804688 C 178.851562 107.800781 178.03125 107.804688 177.953125 107.816406 Z M 177.957031 107.808594 "/></g></svg>